<mxfile host="65bd71144e">
    <diagram id="UzlfY-F97uwRzXLrC-hK" name="第 1 页">
        <mxGraphModel dx="1094" dy="790" grid="0" gridSize="10" guides="1" tooltips="1" connect="1" arrows="1" fold="1" page="1" pageScale="1" pageWidth="827" pageHeight="1169" background="#ffffff" math="0" shadow="0">
            <root>
                <mxCell id="0"/>
                <mxCell id="1" parent="0"/>
                <mxCell id="26" value="" style="ellipse;whiteSpace=wrap;html=1;rounded=0;fontColor=#000000;strokeColor=#000000;gradientColor=none;fillColor=#CCCCCC;" vertex="1" parent="1">
                    <mxGeometry x="70" y="190" width="246" height="350" as="geometry"/>
                </mxCell>
                <mxCell id="25" value="" style="ellipse;whiteSpace=wrap;html=1;rounded=0;fontColor=#000000;strokeColor=#000000;gradientColor=none;fillColor=#E6E6E6;" vertex="1" parent="1">
                    <mxGeometry x="414" y="190" width="246" height="350" as="geometry"/>
                </mxCell>
                <mxCell id="5" value="" style="ellipse;whiteSpace=wrap;html=1;aspect=fixed;rounded=0;fontColor=#000000;fillColor=none;gradientColor=none;strokeColor=#000000;" vertex="1" parent="1">
                    <mxGeometry x="531" y="350" width="30" height="30" as="geometry"/>
                </mxCell>
                <mxCell id="6" value="&lt;font color=&quot;#ffffff&quot;&gt;u&lt;/font&gt;" style="ellipse;whiteSpace=wrap;html=1;aspect=fixed;rounded=0;fontColor=#000000;gradientColor=none;strokeColor=#000000;fillColor=#000000;" vertex="1" parent="1">
                    <mxGeometry x="230" y="440" width="30" height="30" as="geometry"/>
                </mxCell>
                <mxCell id="8" value="" style="ellipse;whiteSpace=wrap;html=1;aspect=fixed;rounded=0;fontColor=#000000;gradientColor=none;strokeColor=#000000;fillColor=#000000;" vertex="1" parent="1">
                    <mxGeometry x="150" y="350" width="30" height="30" as="geometry"/>
                </mxCell>
                <mxCell id="9" value="&lt;font color=&quot;#ffffff&quot;&gt;x&lt;/font&gt;" style="ellipse;whiteSpace=wrap;html=1;aspect=fixed;rounded=0;fontColor=#000000;gradientColor=none;strokeColor=#000000;fillColor=#000000;" vertex="1" parent="1">
                    <mxGeometry x="230" y="250" width="30" height="30" as="geometry"/>
                </mxCell>
                <mxCell id="10" value="v" style="ellipse;whiteSpace=wrap;html=1;aspect=fixed;rounded=0;fontColor=#000000;fillColor=none;gradientColor=none;strokeColor=#000000;" vertex="1" parent="1">
                    <mxGeometry x="460" y="440" width="30" height="30" as="geometry"/>
                </mxCell>
                <mxCell id="11" value="y" style="ellipse;whiteSpace=wrap;html=1;aspect=fixed;rounded=0;fontColor=#000000;fillColor=none;gradientColor=none;strokeColor=#000000;" vertex="1" parent="1">
                    <mxGeometry x="460" y="250" width="30" height="30" as="geometry"/>
                </mxCell>
                <mxCell id="12" value="" style="ellipse;whiteSpace=wrap;html=1;aspect=fixed;rounded=0;fontColor=#000000;gradientColor=none;strokeColor=#000000;fillColor=#000000;" vertex="1" parent="1">
                    <mxGeometry x="140" y="220" width="30" height="30" as="geometry"/>
                </mxCell>
                <mxCell id="13" value="" style="ellipse;whiteSpace=wrap;html=1;aspect=fixed;rounded=0;fontColor=#000000;fillColor=none;gradientColor=none;strokeColor=#000000;" vertex="1" parent="1">
                    <mxGeometry x="611" y="390" width="30" height="30" as="geometry"/>
                </mxCell>
                <mxCell id="14" value="" style="endArrow=none;html=1;fontColor=#000000;entryX=1;entryY=0.5;entryDx=0;entryDy=0;exitX=0;exitY=0;exitDx=0;exitDy=0;strokeColor=#808080;strokeWidth=4;" edge="1" parent="1" source="9" target="12">
                    <mxGeometry width="50" height="50" relative="1" as="geometry">
                        <mxPoint x="390" y="430" as="sourcePoint"/>
                        <mxPoint x="440" y="380" as="targetPoint"/>
                    </mxGeometry>
                </mxCell>
                <mxCell id="15" value="" style="endArrow=none;html=1;fontColor=#000000;entryX=1;entryY=0;entryDx=0;entryDy=0;exitX=0;exitY=1;exitDx=0;exitDy=0;strokeColor=#808080;strokeWidth=4;" edge="1" parent="1" source="9" target="8">
                    <mxGeometry width="50" height="50" relative="1" as="geometry">
                        <mxPoint x="244.39339828220182" y="264.3933982822018" as="sourcePoint"/>
                        <mxPoint x="180" y="245" as="targetPoint"/>
                    </mxGeometry>
                </mxCell>
                <mxCell id="16" value="" style="endArrow=none;html=1;fontColor=#000000;entryX=1;entryY=1;entryDx=0;entryDy=0;exitX=0;exitY=0;exitDx=0;exitDy=0;strokeColor=#000000;" edge="1" parent="1" source="6" target="8">
                    <mxGeometry width="50" height="50" relative="1" as="geometry">
                        <mxPoint x="244.39339828220182" y="285.6066017177982" as="sourcePoint"/>
                        <mxPoint x="185.60660171779818" y="364.3933982822018" as="targetPoint"/>
                    </mxGeometry>
                </mxCell>
                <mxCell id="17" value="" style="endArrow=none;html=1;fontColor=#000000;entryX=0;entryY=0.5;entryDx=0;entryDy=0;exitX=1;exitY=0.5;exitDx=0;exitDy=0;strokeColor=#000000;" edge="1" parent="1" source="9" target="11">
                    <mxGeometry width="50" height="50" relative="1" as="geometry">
                        <mxPoint x="254.39339828220182" y="295.6066017177982" as="sourcePoint"/>
                        <mxPoint x="195.60660171779818" y="374.3933982822018" as="targetPoint"/>
                    </mxGeometry>
                </mxCell>
                <mxCell id="18" value="" style="endArrow=none;html=1;fontColor=#000000;entryX=1;entryY=1;entryDx=0;entryDy=0;exitX=0;exitY=0;exitDx=0;exitDy=0;strokeColor=#808080;strokeWidth=4;" edge="1" parent="1" source="5" target="11">
                    <mxGeometry width="50" height="50" relative="1" as="geometry">
                        <mxPoint x="270" y="275" as="sourcePoint"/>
                        <mxPoint x="470" y="275" as="targetPoint"/>
                    </mxGeometry>
                </mxCell>
                <mxCell id="19" value="" style="endArrow=none;html=1;fontColor=#000000;entryX=1;entryY=0;entryDx=0;entryDy=0;exitX=0;exitY=1;exitDx=0;exitDy=0;strokeColor=#808080;strokeWidth=4;" edge="1" parent="1" source="5" target="10">
                    <mxGeometry width="50" height="50" relative="1" as="geometry">
                        <mxPoint x="531.0033982822018" y="458.7833982822018" as="sourcePoint"/>
                        <mxPoint x="481.2166017177982" y="379.99660171779817" as="targetPoint"/>
                    </mxGeometry>
                </mxCell>
                <mxCell id="20" value="" style="endArrow=none;html=1;fontColor=#000000;entryX=-0.067;entryY=0.267;entryDx=0;entryDy=0;exitX=1;exitY=1;exitDx=0;exitDy=0;entryPerimeter=0;strokeColor=#808080;strokeWidth=4;" edge="1" parent="1" source="5" target="13">
                    <mxGeometry width="50" height="50" relative="1" as="geometry">
                        <mxPoint x="545.3933982822018" y="385.6066017177982" as="sourcePoint"/>
                        <mxPoint x="495.6066017177982" y="454.3933982822018" as="targetPoint"/>
                    </mxGeometry>
                </mxCell>
                <mxCell id="21" value="" style="curved=1;endArrow=classic;html=1;fontColor=#000000;strokeColor=#000000;" edge="1" parent="1">
                    <mxGeometry width="50" height="50" relative="1" as="geometry">
                        <mxPoint x="240" y="420" as="sourcePoint"/>
                        <mxPoint x="480" y="430" as="targetPoint"/>
                        <Array as="points">
                            <mxPoint x="190" y="280"/>
                            <mxPoint x="530" y="280"/>
                        </Array>
                    </mxGeometry>
                </mxCell>
                <mxCell id="22" value="p" style="text;html=1;align=center;verticalAlign=middle;resizable=0;points=[];autosize=1;strokeColor=none;fontColor=#000000;" vertex="1" parent="1">
                    <mxGeometry x="340" y="290" width="20" height="20" as="geometry"/>
                </mxCell>
                <mxCell id="27" value="&lt;font style=&quot;font-size: 18px&quot;&gt;&lt;b&gt;S&lt;/b&gt;&lt;/font&gt;" style="text;html=1;align=center;verticalAlign=middle;resizable=0;points=[];autosize=1;strokeColor=none;fontColor=#000000;" vertex="1" parent="1">
                    <mxGeometry x="170" y="565" width="30" height="20" as="geometry"/>
                </mxCell>
                <mxCell id="28" value="&lt;div style=&quot;text-align: center&quot;&gt;&lt;span style=&quot;font-size: 18px&quot;&gt;&lt;font face=&quot;helvetica&quot;&gt;&lt;b&gt;V-S&lt;/b&gt;&lt;/font&gt;&lt;/span&gt;&lt;/div&gt;" style="text;whiteSpace=wrap;html=1;fontColor=#000000;" vertex="1" parent="1">
                    <mxGeometry x="526" y="555" width="40" height="30" as="geometry"/>
                </mxCell>
                <mxCell id="29" value="" style="endArrow=none;html=1;fontColor=#000000;entryX=0;entryY=0.5;entryDx=0;entryDy=0;strokeColor=#000000;" edge="1" parent="1" source="6" target="10">
                    <mxGeometry width="50" height="50" relative="1" as="geometry">
                        <mxPoint x="566.6066017177982" y="385.6066017177982" as="sourcePoint"/>
                        <mxPoint x="618.99" y="408.01" as="targetPoint"/>
                    </mxGeometry>
                </mxCell>
                <mxCell id="30" value="&lt;h1 style=&quot;font-size: 16px&quot;&gt;&lt;br&gt;&lt;/h1&gt;&lt;h1 style=&quot;font-size: 16px&quot;&gt;灰色加粗边集为A&lt;/h1&gt;&lt;h1 style=&quot;font-size: 16px&quot;&gt;(u,v)是横跨该切割的轻量级边&lt;/h1&gt;&lt;h1 style=&quot;font-size: 16px&quot;&gt;(x,y)是树T里面从u到v的唯一简单路径上的一条边&lt;/h1&gt;&lt;h1 style=&quot;font-size: 16px&quot;&gt;要形成一棵包含(u,v)的最小生成树，只要在T中删除(x,y)，然后加上(u,v)即可&lt;/h1&gt;&lt;p style=&quot;font-size: 16px&quot;&gt;&lt;br&gt;&lt;/p&gt;" style="text;html=1;strokeColor=none;fillColor=none;spacing=5;spacingTop=-20;whiteSpace=wrap;overflow=hidden;rounded=0;fontColor=#000000;" vertex="1" parent="1">
                    <mxGeometry x="682" y="285" width="654" height="160" as="geometry"/>
                </mxCell>
            </root>
        </mxGraphModel>
    </diagram>
</mxfile>